<svg id="Layer_7" data-name="Layer 7" xmlns="http://www.w3.org/2000/svg" viewBox="0 0 39.57 54.87"><polygon points="11.97 44.94 12.35 48.09 27.28 48.09 27.6 44.94 11.97 44.94" fill="#b3b3b3"/><path d="M417,906.28c3,0,5.61-1.17,6.57-2.8H410.43C411.39,905.11,414,906.28,417,906.28Z" transform="translate(-397.22 -851.4)" fill="#999" opacity="0.98"/><path d="M433.52,882.08h0a19.79,19.79,0,1,0-33,0h0l6.7,10.27h19.64l6.59-10.09v0Z" transform="translate(-397.22 -851.4)" fill="#f2dc98"/><path d="M413.77,892.06s2.61-21.94-3.88-16.7,20.66,4.56,14.26,0-4,16.7-4,16.7" transform="translate(-397.22 -851.4)" fill="none" stroke="#999" stroke-miterlimit="10"/></svg>